<?xml version="1.0" encoding="utf-8" ?>
<svg baseProfile="full" height="130cm" version="1.1" viewBox="0,0,210,130" width="210cm" xmlns="http://www.w3.org/2000/svg" xmlns:ev="http://www.w3.org/2001/xml-events" xmlns:xlink="http://www.w3.org/1999/xlink"><defs /><rect fill="white" height="130" width="210" x="0" y="0" /><path d="M 0 0 h 10 v 10 h -10 v -10 z M 0 10 h 10 v 10 h -10 v -10 z M 0 20 h 10 v 10 h -10 v -10 z M 0 30 h 10 v 10 h -10 v -10 z M 0 40 h 10 v 10 h -10 v -10 z M 0 50 h 10 v 10 h -10 v -10 z M 0 60 h 10 v 10 h -10 v -10 z M 0 70 h 10 v 10 h -10 v -10 z M 0 80 h 10 v 10 h -10 v -10 z M 0 90 h 10 v 10 h -10 v -10 z M 0 100 h 10 v 10 h -10 v -10 z M 0 110 h 10 v 10 h -10 v -10 z M 0 120 h 10 v 10 h -10 v -10 z M 10 0 h 10 v 10 h -10 v -10 z M 10 80 h 10 v 10 h -10 v -10 z M 10 120 h 10 v 10 h -10 v -10 z M 20 0 h 10 v 10 h -10 v -10 z M 20 10 h 10 v 10 h -10 v -10 z M 20 20 h 10 v 10 h -10 v -10 z M 20 30 h 10 v 10 h -10 v -10 z M 20 40 h 10 v 10 h -10 v -10 z M 20 60 h 10 v 10 h -10 v -10 z M 20 80 h 10 v 10 h -10 v -10 z M 20 90 h 10 v 10 h -10 v -10 z M 20 100 h 10 v 10 h -10 v -10 z M 20 120 h 10 v 10 h -10 v -10 z M 30 0 h 10 v 10 h -10 v -10 z M 30 20 h 10 v 10 h -10 v -10 z M 30 40 h 10 v 10 h -10 v -10 z M 30 60 h 10 v 10 h -10 v -10 z M 30 80 h 10 v 10 h -10 v -10 z M 30 120 h 10 v 10 h -10 v -10 z M 40 0 h 10 v 10 h -10 v -10 z M 40 20 h 10 v 10 h -10 v -10 z M 40 40 h 10 v 10 h -10 v -10 z M 40 60 h 10 v 10 h -10 v -10 z M 40 70 h 10 v 10 h -10 v -10 z M 40 80 h 10 v 10 h -10 v -10 z M 40 100 h 10 v 10 h -10 v -10 z M 40 120 h 10 v 10 h -10 v -10 z M 50 0 h 10 v 10 h -10 v -10 z M 50 100 h 10 v 10 h -10 v -10 z M 60 0 h 10 v 10 h -10 v -10 z M 60 20 h 10 v 10 h -10 v -10 z M 60 40 h 10 v 10 h -10 v -10 z M 60 60 h 10 v 10 h -10 v -10 z M 60 70 h 10 v 10 h -10 v -10 z M 60 80 h 10 v 10 h -10 v -10 z M 60 90 h 10 v 10 h -10 v -10 z M 60 100 h 10 v 10 h -10 v -10 z M 60 110 h 10 v 10 h -10 v -10 z M 60 120 h 10 v 10 h -10 v -10 z M 70 0 h 10 v 10 h -10 v -10 z M 70 20 h 10 v 10 h -10 v -10 z M 70 40 h 10 v 10 h -10 v -10 z M 70 80 h 10 v 10 h -10 v -10 z M 70 100 h 10 v 10 h -10 v -10 z M 70 120 h 10 v 10 h -10 v -10 z M 80 0 h 10 v 10 h -10 v -10 z M 80 20 h 10 v 10 h -10 v -10 z M 80 30 h 10 v 10 h -10 v -10 z M 80 40 h 10 v 10 h -10 v -10 z M 80 60 h 10 v 10 h -10 v -10 z M 80 80 h 10 v 10 h -10 v -10 z M 80 100 h 10 v 10 h -10 v -10 z M 80 120 h 10 v 10 h -10 v -10 z M 90 0 h 10 v 10 h -10 v -10 z M 90 20 h 10 v 10 h -10 v -10 z M 90 40 h 10 v 10 h -10 v -10 z M 90 60 h 10 v 10 h -10 v -10 z M 90 80 h 10 v 10 h -10 v -10 z M 90 120 h 10 v 10 h -10 v -10 z M 100 0 h 10 v 10 h -10 v -10 z M 100 10 h 10 v 10 h -10 v -10 z M 100 20 h 10 v 10 h -10 v -10 z M 100 40 h 10 v 10 h -10 v -10 z M 100 50 h 10 v 10 h -10 v -10 z M 100 60 h 10 v 10 h -10 v -10 z M 100 80 h 10 v 10 h -10 v -10 z M 100 100 h 10 v 10 h -10 v -10 z M 100 110 h 10 v 10 h -10 v -10 z M 100 120 h 10 v 10 h -10 v -10 z M 110 0 h 10 v 10 h -10 v -10 z M 110 40 h 10 v 10 h -10 v -10 z M 110 60 h 10 v 10 h -10 v -10 z M 110 80 h 10 v 10 h -10 v -10 z M 110 120 h 10 v 10 h -10 v -10 z M 120 0 h 10 v 10 h -10 v -10 z M 120 10 h 10 v 10 h -10 v -10 z M 120 20 h 10 v 10 h -10 v -10 z M 120 40 h 10 v 10 h -10 v -10 z M 120 60 h 10 v 10 h -10 v -10 z M 120 80 h 10 v 10 h -10 v -10 z M 120 100 h 10 v 10 h -10 v -10 z M 120 110 h 10 v 10 h -10 v -10 z M 120 120 h 10 v 10 h -10 v -10 z M 130 0 h 10 v 10 h -10 v -10 z M 130 80 h 10 v 10 h -10 v -10 z M 130 100 h 10 v 10 h -10 v -10 z M 130 120 h 10 v 10 h -10 v -10 z M 140 0 h 10 v 10 h -10 v -10 z M 140 10 h 10 v 10 h -10 v -10 z M 140 20 h 10 v 10 h -10 v -10 z M 140 30 h 10 v 10 h -10 v -10 z M 140 40 h 10 v 10 h -10 v -10 z M 140 60 h 10 v 10 h -10 v -10 z M 140 70 h 10 v 10 h -10 v -10 z M 140 80 h 10 v 10 h -10 v -10 z M 140 100 h 10 v 10 h -10 v -10 z M 140 120 h 10 v 10 h -10 v -10 z M 150 20 h 10 v 10 h -10 v -10 z M 150 40 h 10 v 10 h -10 v -10 z M 150 120 h 10 v 10 h -10 v -10 z M 160 0 h 10 v 10 h -10 v -10 z M 160 20 h 10 v 10 h -10 v -10 z M 160 40 h 10 v 10 h -10 v -10 z M 160 50 h 10 v 10 h -10 v -10 z M 160 60 h 10 v 10 h -10 v -10 z M 160 70 h 10 v 10 h -10 v -10 z M 160 80 h 10 v 10 h -10 v -10 z M 160 90 h 10 v 10 h -10 v -10 z M 160 100 h 10 v 10 h -10 v -10 z M 160 120 h 10 v 10 h -10 v -10 z M 170 0 h 10 v 10 h -10 v -10 z M 170 60 h 10 v 10 h -10 v -10 z M 170 120 h 10 v 10 h -10 v -10 z M 180 0 h 10 v 10 h -10 v -10 z M 180 10 h 10 v 10 h -10 v -10 z M 180 20 h 10 v 10 h -10 v -10 z M 180 40 h 10 v 10 h -10 v -10 z M 180 50 h 10 v 10 h -10 v -10 z M 180 60 h 10 v 10 h -10 v -10 z M 180 80 h 10 v 10 h -10 v -10 z M 180 90 h 10 v 10 h -10 v -10 z M 180 100 h 10 v 10 h -10 v -10 z M 180 120 h 10 v 10 h -10 v -10 z M 190 0 h 10 v 10 h -10 v -10 z M 190 100 h 10 v 10 h -10 v -10 z M 190 120 h 10 v 10 h -10 v -10 z M 200 0 h 10 v 10 h -10 v -10 z M 200 10 h 10 v 10 h -10 v -10 z M 200 20 h 10 v 10 h -10 v -10 z M 200 30 h 10 v 10 h -10 v -10 z M 200 40 h 10 v 10 h -10 v -10 z M 200 50 h 10 v 10 h -10 v -10 z M 200 60 h 10 v 10 h -10 v -10 z M 200 70 h 10 v 10 h -10 v -10 z M 200 80 h 10 v 10 h -10 v -10 z M 200 90 h 10 v 10 h -10 v -10 z M 200 100 h 10 v 10 h -10 v -10 z M 200 110 h 10 v 10 h -10 v -10 z M 200 120 h 10 v 10 h -10 v -10 z" fill="black" shape-rendering="crispEdges" stroke="none" /></svg>